<mxfile host="Electron" agent="Mozilla/5.0 (Windows NT 10.0; Win64; x64) AppleWebKit/537.36 (KHTML, like Gecko) draw.io/26.0.4 Chrome/128.0.6613.186 Electron/32.2.5 Safari/537.36" version="26.0.4">
  <diagram name="Страница — 1" id="yPz3XxtK4vsenGW7H9HK">
    <mxGraphModel dx="1434" dy="836" grid="1" gridSize="10" guides="1" tooltips="1" connect="1" arrows="1" fold="1" page="1" pageScale="1" pageWidth="2336" pageHeight="1654" math="0" shadow="0">
      <root>
        <mxCell id="0" />
        <mxCell id="1" parent="0" />
        <mxCell id="jk8pZAf95kcXgOl9ytWV-48" value="" style="rounded=0;whiteSpace=wrap;html=1;dashed=1;" parent="1" vertex="1">
          <mxGeometry x="1165" y="330" width="490" height="240" as="geometry" />
        </mxCell>
        <mxCell id="jk8pZAf95kcXgOl9ytWV-1" value="Стажёр библиотекаря" style="shape=umlActor;verticalLabelPosition=bottom;verticalAlign=top;html=1;outlineConnect=0;" parent="1" vertex="1">
          <mxGeometry x="1005" y="570" width="30" height="60" as="geometry" />
        </mxCell>
        <mxCell id="jk8pZAf95kcXgOl9ytWV-5" value="Добавить факт выдачи&amp;nbsp; книги читателю" style="ellipse;whiteSpace=wrap;html=1;" parent="1" vertex="1">
          <mxGeometry x="1214" y="390" width="120" height="80" as="geometry" />
        </mxCell>
        <mxCell id="jk8pZAf95kcXgOl9ytWV-6" value="Добавить факт возврат&amp;nbsp; книги читателем" style="ellipse;whiteSpace=wrap;html=1;" parent="1" vertex="1">
          <mxGeometry x="1214" y="480" width="120" height="80" as="geometry" />
        </mxCell>
        <mxCell id="jk8pZAf95kcXgOl9ytWV-7" value="Ввести информацию о состоянии экземпляра книги" style="ellipse;whiteSpace=wrap;html=1;" parent="1" vertex="1">
          <mxGeometry x="885" y="200" width="150" height="100" as="geometry" />
        </mxCell>
        <mxCell id="jk8pZAf95kcXgOl9ytWV-36" value="Изменить факт выдачи&amp;nbsp; книги читателю" style="ellipse;whiteSpace=wrap;html=1;" parent="1" vertex="1">
          <mxGeometry x="1346" y="390" width="120" height="80" as="geometry" />
        </mxCell>
        <mxCell id="jk8pZAf95kcXgOl9ytWV-37" value="Удалить факт выдачи&amp;nbsp; книги читателю" style="ellipse;whiteSpace=wrap;html=1;" parent="1" vertex="1">
          <mxGeometry x="1486" y="390" width="120" height="80" as="geometry" />
        </mxCell>
        <mxCell id="jk8pZAf95kcXgOl9ytWV-38" value="Изменить факт возврата&amp;nbsp; книги читателем" style="ellipse;whiteSpace=wrap;html=1;" parent="1" vertex="1">
          <mxGeometry x="1346" y="480" width="120" height="80" as="geometry" />
        </mxCell>
        <mxCell id="jk8pZAf95kcXgOl9ytWV-39" value="Удалить факт возврат&amp;nbsp; книги читателем" style="ellipse;whiteSpace=wrap;html=1;" parent="1" vertex="1">
          <mxGeometry x="1486" y="480" width="120" height="80" as="geometry" />
        </mxCell>
        <mxCell id="jk8pZAf95kcXgOl9ytWV-49" value="Выдача/возврат экземпляров книг" style="text;html=1;align=center;verticalAlign=middle;whiteSpace=wrap;rounded=0;fontStyle=1" parent="1" vertex="1">
          <mxGeometry x="1275" y="340" width="230" height="30" as="geometry" />
        </mxCell>
        <mxCell id="jk8pZAf95kcXgOl9ytWV-55" value="" style="endArrow=classic;html=1;rounded=0;entryX=0;entryY=0.75;entryDx=0;entryDy=0;" parent="1" target="jk8pZAf95kcXgOl9ytWV-48" edge="1">
          <mxGeometry width="50" height="50" relative="1" as="geometry">
            <mxPoint x="1050" y="570" as="sourcePoint" />
            <mxPoint x="1110" y="650" as="targetPoint" />
          </mxGeometry>
        </mxCell>
        <mxCell id="jk8pZAf95kcXgOl9ytWV-59" value="" style="endArrow=classic;html=1;rounded=0;entryX=1;entryY=0.5;entryDx=0;entryDy=0;exitX=0;exitY=0;exitDx=0;exitDy=0;dashed=1;" parent="1" source="jk8pZAf95kcXgOl9ytWV-48" target="jk8pZAf95kcXgOl9ytWV-7" edge="1">
          <mxGeometry width="50" height="50" relative="1" as="geometry">
            <mxPoint x="895" y="680" as="sourcePoint" />
            <mxPoint x="1035" y="250" as="targetPoint" />
          </mxGeometry>
        </mxCell>
        <mxCell id="jk8pZAf95kcXgOl9ytWV-61" value="&amp;lt;&amp;lt;включает&amp;gt;&amp;gt;" style="text;html=1;align=center;verticalAlign=middle;whiteSpace=wrap;rounded=0;" parent="1" vertex="1">
          <mxGeometry x="1123" y="270" width="60" height="30" as="geometry" />
        </mxCell>
        <mxCell id="hLrI45RPySUn7U1taJ00-25" value="" style="endArrow=classic;html=1;rounded=0;entryX=0.5;entryY=0;entryDx=0;entryDy=0;" parent="1" target="ErdKHxMm3HmFfZUL8xs6-1" edge="1">
          <mxGeometry width="50" height="50" relative="1" as="geometry">
            <mxPoint x="1010" y="670" as="sourcePoint" />
            <mxPoint x="782.5" y="910" as="targetPoint" />
          </mxGeometry>
        </mxCell>
        <mxCell id="hLrI45RPySUn7U1taJ00-26" value="" style="endArrow=classic;html=1;rounded=0;entryX=1;entryY=0.5;entryDx=0;entryDy=0;" parent="1" target="ErdKHxMm3HmFfZUL8xs6-10" edge="1">
          <mxGeometry width="50" height="50" relative="1" as="geometry">
            <mxPoint x="960" y="590" as="sourcePoint" />
            <mxPoint x="780" y="490" as="targetPoint" />
          </mxGeometry>
        </mxCell>
        <mxCell id="ErdKHxMm3HmFfZUL8xs6-1" value="" style="rounded=0;whiteSpace=wrap;html=1;dashed=1;" vertex="1" parent="1">
          <mxGeometry x="627.5" y="850" width="600" height="250" as="geometry" />
        </mxCell>
        <mxCell id="ErdKHxMm3HmFfZUL8xs6-2" value="Добавить бронь" style="ellipse;whiteSpace=wrap;html=1;" vertex="1" parent="1">
          <mxGeometry x="655" y="900" width="120" height="80" as="geometry" />
        </mxCell>
        <mxCell id="ErdKHxMm3HmFfZUL8xs6-3" value="Изменить бронь" style="ellipse;whiteSpace=wrap;html=1;" vertex="1" parent="1">
          <mxGeometry x="790" y="900" width="120" height="80" as="geometry" />
        </mxCell>
        <mxCell id="ErdKHxMm3HmFfZUL8xs6-4" value="Удалить бронь" style="ellipse;whiteSpace=wrap;html=1;" vertex="1" parent="1">
          <mxGeometry x="920" y="900" width="120" height="80" as="geometry" />
        </mxCell>
        <mxCell id="ErdKHxMm3HmFfZUL8xs6-5" value="Работа с бронями экземпляров книг читателями" style="text;html=1;align=center;verticalAlign=middle;whiteSpace=wrap;rounded=0;fontStyle=1" vertex="1" parent="1">
          <mxGeometry x="823.75" y="860" width="207.5" height="30" as="geometry" />
        </mxCell>
        <mxCell id="ErdKHxMm3HmFfZUL8xs6-6" value="Получить список броней" style="ellipse;whiteSpace=wrap;html=1;" vertex="1" parent="1">
          <mxGeometry x="655" y="990" width="120" height="80" as="geometry" />
        </mxCell>
        <mxCell id="ErdKHxMm3HmFfZUL8xs6-7" value="Получить бронь по ID брони" style="ellipse;whiteSpace=wrap;html=1;" vertex="1" parent="1">
          <mxGeometry x="790" y="990" width="120" height="80" as="geometry" />
        </mxCell>
        <mxCell id="ErdKHxMm3HmFfZUL8xs6-8" value="Получить список броней по ID пользователя" style="ellipse;whiteSpace=wrap;html=1;" vertex="1" parent="1">
          <mxGeometry x="920" y="990" width="120" height="80" as="geometry" />
        </mxCell>
        <mxCell id="ErdKHxMm3HmFfZUL8xs6-9" value="Получить список броней по ID книги или экземпляра книги" style="ellipse;whiteSpace=wrap;html=1;" vertex="1" parent="1">
          <mxGeometry x="1065" y="990" width="120" height="80" as="geometry" />
        </mxCell>
        <mxCell id="ErdKHxMm3HmFfZUL8xs6-10" value="" style="rounded=0;whiteSpace=wrap;html=1;dashed=1;" vertex="1" parent="1">
          <mxGeometry x="90" y="260" width="710" height="440" as="geometry" />
        </mxCell>
        <mxCell id="ErdKHxMm3HmFfZUL8xs6-11" value="Получить список элементов справчника" style="ellipse;whiteSpace=wrap;html=1;" vertex="1" parent="1">
          <mxGeometry x="122.5" y="310" width="120" height="80" as="geometry" />
        </mxCell>
        <mxCell id="ErdKHxMm3HmFfZUL8xs6-12" value="Получить список книг и экземпляров книг" style="ellipse;whiteSpace=wrap;html=1;" vertex="1" parent="1">
          <mxGeometry x="120" y="410" width="120" height="80" as="geometry" />
        </mxCell>
        <mxCell id="ErdKHxMm3HmFfZUL8xs6-13" value="Получить книгу или экземпляр книги по ID" style="ellipse;whiteSpace=wrap;html=1;" vertex="1" parent="1">
          <mxGeometry x="262.5" y="410" width="120" height="80" as="geometry" />
        </mxCell>
        <mxCell id="ErdKHxMm3HmFfZUL8xs6-14" value="Получить элемент справочника по ID&amp;nbsp;" style="ellipse;whiteSpace=wrap;html=1;" vertex="1" parent="1">
          <mxGeometry x="257.5" y="310" width="120" height="80" as="geometry" />
        </mxCell>
        <mxCell id="ErdKHxMm3HmFfZUL8xs6-15" value="Получить элемент справочник&amp;nbsp;по наименованию&amp;nbsp;" style="ellipse;whiteSpace=wrap;html=1;" vertex="1" parent="1">
          <mxGeometry x="400" y="310" width="120" height="80" as="geometry" />
        </mxCell>
        <mxCell id="ErdKHxMm3HmFfZUL8xs6-16" value="Работа с данными библиотеки" style="text;html=1;align=center;verticalAlign=middle;whiteSpace=wrap;rounded=0;fontStyle=1" vertex="1" parent="1">
          <mxGeometry x="222.5" y="270" width="165" height="30" as="geometry" />
        </mxCell>
        <mxCell id="ErdKHxMm3HmFfZUL8xs6-17" value="Получить книгу или экземпляр книги по наименованию" style="ellipse;whiteSpace=wrap;html=1;" vertex="1" parent="1">
          <mxGeometry x="397.5" y="410" width="120" height="80" as="geometry" />
        </mxCell>
        <mxCell id="ErdKHxMm3HmFfZUL8xs6-18" value="Получить список фактов ухода/прихода и выдачи/возвратов" style="ellipse;whiteSpace=wrap;html=1;" vertex="1" parent="1">
          <mxGeometry x="120" y="500" width="120" height="80" as="geometry" />
        </mxCell>
        <mxCell id="ErdKHxMm3HmFfZUL8xs6-19" value="Получить факт по ID" style="ellipse;whiteSpace=wrap;html=1;" vertex="1" parent="1">
          <mxGeometry x="262.5" y="500" width="120" height="80" as="geometry" />
        </mxCell>
        <mxCell id="ErdKHxMm3HmFfZUL8xs6-20" value="Получить факты по ID книги или экземпляра книги" style="ellipse;whiteSpace=wrap;html=1;" vertex="1" parent="1">
          <mxGeometry x="397.5" y="500" width="120" height="80" as="geometry" />
        </mxCell>
        <mxCell id="ErdKHxMm3HmFfZUL8xs6-21" value="Получить список&amp;nbsp; пользователей и регистраций" style="ellipse;whiteSpace=wrap;html=1;" vertex="1" parent="1">
          <mxGeometry x="120" y="590" width="120" height="80" as="geometry" />
        </mxCell>
        <mxCell id="ErdKHxMm3HmFfZUL8xs6-22" value="Получить пользователя по ID" style="ellipse;whiteSpace=wrap;html=1;" vertex="1" parent="1">
          <mxGeometry x="262.5" y="590" width="120" height="80" as="geometry" />
        </mxCell>
        <mxCell id="ErdKHxMm3HmFfZUL8xs6-23" value="Получить пользователя по имени" style="ellipse;whiteSpace=wrap;html=1;" vertex="1" parent="1">
          <mxGeometry x="387.5" y="590" width="120" height="80" as="geometry" />
        </mxCell>
        <mxCell id="ErdKHxMm3HmFfZUL8xs6-24" value="Получить факты по ID пользователя" style="ellipse;whiteSpace=wrap;html=1;" vertex="1" parent="1">
          <mxGeometry x="532.5" y="500" width="120" height="80" as="geometry" />
        </mxCell>
        <mxCell id="ErdKHxMm3HmFfZUL8xs6-25" value="Получить факты интревалу дат" style="ellipse;whiteSpace=wrap;html=1;" vertex="1" parent="1">
          <mxGeometry x="667.5" y="500" width="120" height="80" as="geometry" />
        </mxCell>
      </root>
    </mxGraphModel>
  </diagram>
</mxfile>
